<?xml version="1.0" standalone="no"?>
<!DOCTYPE svg PUBLIC "-//W3C//DTD SVG 20010904//EN"
 "http://www.w3.org/TR/2001/REC-SVG-20010904/DTD/svg10.dtd">
<svg version="1.0" xmlns="http://www.w3.org/2000/svg"
 width="200.000000pt" height="200.000000pt" viewBox="0 0 200.000000 200.000000"
 preserveAspectRatio="xMidYMid meet">

<g transform="translate(0.000000,200.000000) scale(0.100000,-0.100000)"
fill="#000000" stroke="none">
<path d="M597 1128 c-39 -23 -77 -86 -77 -128 0 -44 38 -105 79 -128 100 -56
221 12 221 125 0 38 -6 51 -34 79 -28 28 -42 34 -76 34 -85 0 -144 -106 -90
-160 55 -55 157 12 115 76 -18 28 -47 31 -69 8 -23 -22 -20 -54 4 -54 11 0 20
5 20 10 0 6 -5 10 -12 10 -8 0 -6 6 5 17 21 21 40 6 35 -27 -7 -51 -82 -53
-94 -3 -16 61 58 114 111 79 37 -24 48 -60 31 -100 -30 -72 -114 -90 -168 -36
-28 28 -30 35 -26 81 6 60 50 112 107 127 l36 10 -40 1 c-24 0 -55 -8 -78 -21z"/>
<path d="M891 993 c1 -47 3 -59 8 -38 8 39 32 39 50 0 8 -16 16 -24 18 -18 3
7 -1 22 -7 34 -9 16 -9 23 0 29 6 4 10 18 8 31 -2 20 -10 25 -40 27 l-38 3 1
-68z m57 35 c-2 -15 -10 -23 -23 -23 -13 0 -21 8 -23 23 -3 18 1 22 23 22 22
0 26 -4 23 -22z"/>
<path d="M1195 1000 c-10 -33 -16 -63 -13 -66 4 -3 9 4 13 15 9 28 55 29 62 1
3 -11 10 -20 15 -20 6 0 8 6 6 13 -3 6 -13 36 -22 65 -10 28 -23 52 -30 52 -7
0 -21 -27 -31 -60z m38 -18 c-21 -5 -25 2 -17 34 l7 29 13 -30 c10 -25 10 -31
-3 -33z"/>
<path d="M998 1005 c-8 -19 -8 -31 0 -50 12 -26 45 -34 57 -14 4 6 1 10 -6 8
-25 -3 -39 1 -39 11 0 6 11 10 24 10 31 0 40 14 26 40 -15 28 -48 25 -62 -5z
m50 -3 c2 -7 -6 -12 -17 -12 -21 0 -27 11 -14 24 9 9 26 2 31 -12z"/>
<path d="M1101 1016 c-16 -20 -10 -66 10 -79 10 -6 24 -7 35 -2 17 8 16 9 -8
12 -31 5 -42 27 -27 56 11 20 12 20 25 2 8 -10 17 -16 20 -12 9 9 -15 37 -31
37 -7 0 -18 -6 -24 -14z"/>
<path d="M1300 958 c0 -39 4 -68 10 -68 6 0 10 11 10 25 0 16 4 23 14 19 17
-6 46 22 46 44 0 30 -18 47 -50 47 l-30 1 0 -68z m60 22 c0 -23 -4 -30 -20
-30 -16 0 -20 7 -20 30 0 23 4 30 20 30 16 0 20 -7 20 -30z"/>
<path d="M1411 955 c1 -38 4 -58 6 -43 3 19 9 25 19 21 21 -8 44 16 44 47 0
33 -17 50 -48 47 -21 -1 -22 -6 -21 -72z m49 25 c0 -23 -4 -30 -20 -30 -16 0
-20 7 -20 30 0 23 4 30 20 30 16 0 20 -7 20 -30z"/>
</g>
</svg>
